<?xml version="1.0" encoding="iso-8859-1"?>
<!-- Generator: Adobe Illustrator 19.0.0, SVG Export Plug-In . SVG Version: 6.00 Build 0)  -->
<svg version="1.1" id="Layer_1" xmlns="http://www.w3.org/2000/svg" xmlns:xlink="http://www.w3.org/1999/xlink" x="0px" y="0px"
	 viewBox="0 0 512 512" style="enable-background:new 0 0 512 512;" xml:space="preserve">
<g>
	<g>
		<path style="fill:#F3D55B;" d="M452.266,290.133c0,4.71-3.823,8.533-8.533,8.533s-8.533-3.823-8.533-8.533
			c0-4.71,3.823-8.533,8.533-8.533S452.266,285.423,452.266,290.133"/>
		<path style="fill:#F3D55B;" d="M494.933,85.333c0,4.71-3.823,8.533-8.533,8.533s-8.533-3.823-8.533-8.533
			c0-4.71,3.823-8.533,8.533-8.533S494.933,80.623,494.933,85.333"/>
		<path style="fill:#F3D55B;" d="M34.133,418.133c0,4.71-3.823,8.533-8.533,8.533s-8.533-3.823-8.533-8.533s3.823-8.533,8.533-8.533
			S34.133,413.423,34.133,418.133"/>
		<path style="fill:#F3D55B;" d="M85.333,204.8c0,4.71-3.823,8.533-8.533,8.533c-4.71,0-8.533-3.823-8.533-8.533
			c0-4.71,3.823-8.533,8.533-8.533C81.51,196.267,85.333,200.09,85.333,204.8"/>
		<path style="fill:#F3D55B;" d="M34.108,42.667c3.234,2.432,6.127,5.316,8.559,8.559c2.432-3.243,5.316-6.127,8.559-8.559
			c-3.243-2.432-6.127-5.316-8.559-8.559C40.235,37.35,37.342,40.235,34.108,42.667 M42.667,85.333c-4.71,0-8.533-3.814-8.533-8.533
			c0-14.114-11.486-25.6-25.6-25.6C3.823,51.2,0,47.386,0,42.667s3.823-8.533,8.533-8.533c14.114,0,25.6-11.486,25.6-25.6
			C34.134,3.814,37.957,0,42.667,0S51.2,3.814,51.2,8.533c0,14.114,11.486,25.6,25.6,25.6c4.71,0,8.533,3.814,8.533,8.533
			S81.511,51.2,76.8,51.2c-14.114,0-25.6,11.486-25.6,25.6C51.2,81.519,47.377,85.333,42.667,85.333"/>
		<path style="fill:#F3D55B;" d="M447.267,460.8l13.534,13.534l13.534-13.534L460.8,447.266L447.267,460.8z M460.8,498.466
			L423.134,460.8l37.666-37.666l37.666,37.666L460.8,498.466z"/>
		<path style="fill:#F3D55B;" d="M460.8,443.733c-4.719,0-8.533-3.814-8.533-8.533v-17.067c0-4.719,3.814-8.533,8.533-8.533
			c4.719,0,8.533,3.814,8.533,8.533V435.2C469.333,439.919,465.519,443.733,460.8,443.733"/>
		<path style="fill:#F3D55B;" d="M503.466,469.333H486.4c-4.719,0-8.533-3.814-8.533-8.533c0-4.719,3.814-8.533,8.533-8.533h17.067
			c4.719,0,8.533,3.814,8.533,8.533C512,465.519,508.185,469.333,503.466,469.333"/>
		<path style="fill:#F3D55B;" d="M460.8,512c-4.719,0-8.533-3.814-8.533-8.533V486.4c0-4.719,3.814-8.533,8.533-8.533
			c4.719,0,8.533,3.814,8.533,8.533v17.067C469.333,508.186,465.519,512,460.8,512"/>
		<path style="fill:#F3D55B;" d="M435.2,469.333h-17.067c-4.719,0-8.533-3.814-8.533-8.533c0-4.719,3.814-8.533,8.533-8.533H435.2
			c4.719,0,8.533,3.814,8.533,8.533C443.733,465.519,439.919,469.333,435.2,469.333"/>
	</g>
	<path style="fill:#B0B6BB;" d="M281.6,349.867c0,42.419-11.46,76.8-25.6,76.8s-25.6-34.381-25.6-76.8s11.46-76.8,25.6-76.8
		S281.6,307.447,281.6,349.867"/>
	<path style="fill:#E8EDEE;" d="M349.866,238.933c0-23.287-1.229-43.648-2.756-59.955c-3.081-32.939-10.999-65.34-25.139-95.249
		C291.908,20.156,256,8.533,256,8.533s-35.908,11.622-65.971,75.196c-14.14,29.909-22.059,62.31-25.139,95.249
		c-1.527,16.307-2.756,36.668-2.756,59.955c0,0-1.067,101.333,25.6,128c0,0,12.86,17.988,46.618,23.782
		c-2.492-11.844-3.951-25.822-3.951-40.849c0-42.419,11.46-76.8,25.6-76.8s25.6,34.381,25.6,76.8
		c0,15.027-1.459,29.005-3.951,40.849c33.758-5.794,46.618-23.782,46.618-23.782C350.933,340.267,349.866,238.933,349.866,238.933"
		/>
	<g>
		<path style="fill:#B0B6BB;" d="M349.866,273.067l-1.289,2.577c-2.219,31.812-8.201,75.179-24.311,91.29
			c0,0-0.145,0.196-0.367,0.469c-0.051,0.068-0.051,0.068-0.119,0.145c-0.256,0.316-0.606,0.734-1.092,1.263
			c-0.094,0.102-0.128,0.154-0.23,0.265l56.26,39.39c5.82,4.07,13.815-0.094,13.815-7.194v-34.338
			C392.533,299.733,349.866,273.067,349.866,273.067"/>
		<path style="fill:#B0B6BB;" d="M188.218,367.55c-0.068-0.077-0.068-0.077-0.119-0.145c-0.222-0.273-0.367-0.469-0.367-0.469
			c-16.111-16.119-22.093-59.477-24.311-91.29l-1.289-2.577c0,0-42.667,26.667-42.667,93.867v34.338
			c0,7.1,7.996,11.264,13.815,7.194l56.26-39.39c-0.094-0.111-0.128-0.162-0.222-0.265
			C188.832,368.284,188.474,367.866,188.218,367.55"/>
	</g>
	<path style="fill:#F3D55B;" d="M286.313,396.126c0,0-2.884-3.319-8.439-6.485c-4.497,22.17-12.595,37.026-21.871,37.026
		c-9.276,0-17.374-14.848-21.871-37.009c-2.807,1.673-5.666,3.686-8.448,6.468c-14.609,14.609-16.307,37.376-4.838,54.562
		l35.157,52.779l35.157-52.642C302.621,433.63,300.922,410.735,286.313,396.126"/>
	<path style="fill:#B0B6BB;" d="M315.733,179.2c0,32.99-26.743,59.733-59.733,59.733s-59.733-26.743-59.733-59.733
		S223.01,119.467,256,119.467S315.733,146.21,315.733,179.2"/>
	<path style="fill:#E8EDEE;" d="M281.6,179.2c0,14.14-11.46,25.6-25.6,25.6s-25.6-11.46-25.6-25.6c0-14.14,11.46-25.6,25.6-25.6
		S281.6,165.06,281.6,179.2"/>
	<path style="fill:#D75A4A;" d="M256,85.333c22.161,0,42.3-6.801,57.455-17.894C285.533,18.227,256,8.533,256,8.533
		s-29.534,9.694-57.455,58.906C213.7,78.532,233.839,85.333,256,85.333"/>
</g>
<g>
</g>
<g>
</g>
<g>
</g>
<g>
</g>
<g>
</g>
<g>
</g>
<g>
</g>
<g>
</g>
<g>
</g>
<g>
</g>
<g>
</g>
<g>
</g>
<g>
</g>
<g>
</g>
<g>
</g>
</svg>
