<?xml version="1.0" standalone="no"?>
<!DOCTYPE svg PUBLIC "-//W3C//DTD SVG 20010904//EN"
 "http://www.w3.org/TR/2001/REC-SVG-20010904/DTD/svg10.dtd">
<svg version="1.0" xmlns="http://www.w3.org/2000/svg"
 width="884.000000pt" height="884.000000pt" viewBox="0 0 884.000000 884.000000"
 preserveAspectRatio="xMidYMid meet">
<metadata>
Created by potrace 1.14, written by Peter Selinger 2001-2017
</metadata>
<g transform="translate(0.000000,884.000000) scale(0.100000,-0.100000)"
fill="#000000" stroke="none">
<path d="M4395 8405 c-22 -33 -175 -297 -175 -300 0 -2 -27 -49 -60 -104 -33
-56 -60 -106 -60 -111 0 -6 -4 -10 -8 -10 -4 0 -13 -12 -19 -27 -7 -16 -17
-35 -23 -43 -5 -8 -55 -94 -110 -190 -55 -96 -104 -182 -110 -190 -15 -24
-110 -191 -134 -235 -11 -22 -24 -42 -27 -45 -3 -3 -16 -25 -30 -50 -13 -25
-26 -47 -29 -50 -3 -3 -11 -16 -18 -30 -7 -14 -22 -41 -33 -60 -12 -19 -33
-55 -47 -80 -14 -25 -34 -58 -44 -75 -10 -16 -21 -37 -25 -45 -3 -8 -21 -39
-40 -68 -18 -29 -33 -54 -33 -56 0 -2 -30 -55 -66 -117 -88 -150 -101 -174
-137 -239 -17 -30 -33 -57 -36 -60 -3 -3 -15 -21 -25 -40 -73 -136 -90 -166
-96 -170 -4 -3 -13 -18 -22 -35 -17 -34 -121 -215 -149 -260 -10 -16 -22 -37
-26 -45 -4 -8 -23 -42 -43 -76 l-36 -62 -65 32 c-192 98 -487 251 -506 263
-13 9 -23 12 -23 8 0 -4 -6 -2 -14 4 -14 11 -316 168 -536 278 -63 32 -117 60
-120 63 -3 3 -72 39 -155 80 -82 41 -152 77 -155 80 -8 8 -234 120 -242 120
-3 0 20 -44 52 -97 59 -100 74 -127 157 -272 26 -46 63 -109 81 -140 18 -31
35 -64 39 -73 3 -10 9 -18 14 -18 5 0 9 -4 9 -9 0 -8 72 -137 100 -181 6 -8
13 -22 17 -30 4 -8 22 -38 40 -67 18 -29 33 -54 33 -56 0 -2 44 -80 98 -173
54 -93 110 -189 124 -214 14 -25 58 -101 98 -170 40 -69 82 -141 93 -160 10
-19 52 -91 92 -160 117 -204 125 -219 118 -237 -4 -10 -9 -20 -12 -23 -3 -3
-12 -16 -19 -29 -16 -27 -20 -35 -127 -221 -42 -74 -83 -144 -90 -155 -7 -11
-12 -24 -13 -29 0 -5 -4 -12 -9 -15 -5 -3 -17 -19 -25 -36 -8 -16 -88 -156
-178 -310 -89 -154 -172 -298 -185 -320 -12 -22 -46 -80 -75 -130 -29 -49 -58
-99 -64 -110 -43 -75 -146 -254 -169 -293 -15 -26 -31 -55 -34 -65 -3 -9 -9
-17 -13 -17 -4 0 -10 -8 -13 -17 -6 -18 -33 -66 -73 -133 -12 -19 -33 -56 -48
-83 l-26 -47 73 38 c39 22 160 84 267 138 107 54 198 103 202 109 4 5 8 6 8 1
0 -5 6 -4 13 1 6 6 107 59 222 118 116 59 214 112 219 116 6 5 18 9 27 9 10 0
19 3 21 8 2 4 53 32 113 63 203 103 529 272 592 305 46 25 64 30 71 21 16 -19
192 -328 192 -337 0 -5 3 -10 8 -12 6 -2 81 -132 257 -440 6 -10 75 -129 154
-265 79 -136 154 -267 167 -290 13 -23 52 -90 87 -150 35 -59 66 -115 70 -123
4 -8 16 -28 27 -45 11 -16 23 -37 27 -45 3 -8 33 -59 65 -113 32 -54 58 -99
58 -101 0 -2 43 -76 95 -165 52 -90 95 -165 95 -167 0 -2 11 -23 26 -45 14
-22 33 -55 43 -72 10 -18 35 -61 55 -97 21 -36 41 -72 46 -80 109 -185 140
-241 140 -250 0 -5 4 -10 8 -10 4 0 19 -22 33 -50 13 -27 28 -48 33 -47 8 3
167 271 284 477 14 25 45 78 69 118 24 41 43 78 43 83 0 5 5 9 10 9 6 0 10 5
10 11 0 10 137 249 149 259 3 3 7 12 9 20 2 8 8 20 14 27 5 7 18 27 27 45 10
18 42 76 73 128 30 52 63 111 74 130 10 19 21 37 24 40 3 3 13 20 23 38 10 18
66 114 123 214 57 99 104 184 104 189 0 5 4 9 9 9 5 0 13 10 17 23 4 12 22 46
40 75 19 29 34 54 34 56 0 1 39 70 86 152 168 289 197 339 208 361 6 13 14 23
19 23 4 0 7 5 7 11 0 6 31 63 68 127 38 64 72 124 76 132 10 23 28 52 54 88
13 17 20 32 16 32 -4 0 1 9 11 20 17 19 18 19 99 -24 101 -54 393 -205 546
-281 63 -32 123 -65 134 -74 10 -9 20 -15 22 -14 5 3 78 -28 84 -36 3 -3 88
-48 190 -100 102 -51 268 -136 370 -189 349 -180 373 -192 382 -192 5 0 1 12
-10 28 -10 15 -31 48 -44 73 -43 77 -53 94 -58 99 -3 3 -14 23 -25 45 -11 22
-23 42 -26 45 -3 3 -23 37 -44 75 -21 39 -41 75 -45 80 -5 6 -17 27 -29 47
-52 94 -67 120 -132 230 -38 64 -69 121 -69 127 0 6 -4 11 -9 11 -5 0 -11 8
-15 18 -7 19 -39 77 -79 139 -15 24 -27 45 -27 48 0 2 -20 39 -45 81 -25 41
-45 80 -45 85 0 5 -4 9 -10 9 -5 0 -10 5 -10 10 0 6 -18 40 -40 76 -22 36 -40
68 -40 70 0 2 -18 33 -40 69 -22 36 -40 67 -40 70 0 2 -25 45 -55 96 -30 50
-55 93 -55 94 0 2 -27 49 -60 104 -33 56 -60 105 -60 110 0 5 -3 11 -7 13 -5
2 -18 22 -31 45 l-23 43 31 57 c18 32 35 63 40 68 4 6 18 28 30 50 63 112 155
271 160 275 3 3 14 24 25 47 11 24 23 43 28 43 4 0 7 4 7 9 0 9 127 231 325
571 40 69 83 143 95 165 13 22 31 54 41 70 10 17 24 41 32 55 7 14 23 41 34
60 11 19 89 154 173 300 84 146 154 268 156 272 4 6 -244 -118 -261 -132 -5
-4 -21 -11 -35 -15 -14 -4 -27 -11 -30 -14 -3 -4 -45 -27 -95 -51 -49 -24
-107 -54 -127 -67 -21 -13 -44 -23 -52 -23 -8 0 -16 -3 -18 -7 -1 -5 -96 -55
-209 -113 -114 -58 -237 -121 -275 -141 -38 -19 -188 -96 -334 -171 -146 -75
-292 -150 -324 -167 -33 -17 -60 -30 -61 -28 -17 28 -85 150 -85 153 0 3 -5
10 -10 17 -6 7 -56 91 -111 187 -55 96 -124 216 -153 265 -29 50 -117 203
-196 340 -78 138 -151 262 -161 277 -11 15 -19 29 -19 32 0 3 -38 69 -84 148
-46 79 -93 160 -105 181 -11 20 -31 54 -43 75 -12 20 -34 60 -50 87 -16 28
-33 57 -38 65 -12 19 -86 147 -135 235 -13 22 -47 81 -76 130 -28 50 -62 107
-73 127 -19 33 -109 190 -177 308 -14 25 -35 61 -47 81 -11 20 -39 67 -61 104
-23 37 -41 71 -41 75 0 17 -43 5 -55 -15z m53 -865 c10 -19 52 -91 92 -160 40
-68 81 -139 91 -157 11 -18 29 -50 41 -70 12 -21 34 -60 50 -88 16 -27 33 -57
38 -65 15 -25 111 -192 138 -240 14 -25 36 -62 49 -82 12 -21 23 -39 23 -42 0
-3 59 -105 90 -156 5 -8 22 -37 38 -65 16 -27 39 -68 52 -90 12 -22 34 -60 48
-85 14 -25 36 -62 49 -82 12 -21 23 -40 23 -43 0 -2 15 -28 33 -57 19 -29 46
-75 61 -103 65 -117 129 -226 137 -231 5 -3 9 -14 9 -25 0 -10 4 -19 8 -19 4
0 19 -22 33 -50 13 -27 27 -50 32 -50 4 0 7 -4 7 -10 0 -5 20 -44 45 -86 25
-41 45 -78 45 -80 0 -3 10 -18 22 -35 28 -37 23 -43 -92 -99 -47 -23 -92 -45
-100 -50 -14 -8 -212 -110 -430 -222 -47 -23 -87 -45 -90 -48 -3 -3 -12 -6
-20 -8 -8 -2 -16 -8 -18 -13 -2 -5 -11 -9 -21 -9 -9 0 -21 -4 -26 -9 -6 -6
-82 -46 -170 -91 -88 -45 -164 -86 -170 -91 -5 -5 -17 -9 -26 -9 -10 0 -19 -4
-21 -8 -1 -4 -24 -18 -49 -29 l-46 -22 -114 60 c-63 33 -118 61 -124 62 -5 2
-17 7 -25 12 -8 5 -58 31 -110 58 -148 76 -450 232 -610 315 -80 41 -180 92
-222 114 -42 21 -80 42 -83 47 -3 5 18 49 46 98 53 91 76 130 108 186 10 17
31 55 48 82 16 28 32 57 36 65 4 8 16 29 27 45 11 17 24 39 30 50 5 11 23 43
39 70 17 28 38 66 48 85 9 19 20 37 24 40 3 3 19 30 35 60 15 30 31 57 34 60
10 9 170 291 170 301 0 5 5 9 10 9 6 0 10 4 10 9 0 5 48 91 107 192 58 101
113 199 122 217 8 17 19 32 23 32 4 0 8 4 8 9 0 5 66 123 146 262 211 366 219
378 220 376 1 -1 11 -18 22 -37z m-2087 -2303 c3 -5 9 -8 12 -8 7 0 87 -36
124 -57 21 -12 21 -13 -32 -104 -30 -51 -66 -117 -81 -146 -16 -29 -32 -51
-37 -49 -8 2 -147 233 -147 244 0 2 -16 29 -35 59 -19 30 -35 57 -35 60 0 3
-8 18 -18 32 -10 15 -33 53 -51 85 l-32 58 163 -83 c90 -45 166 -86 169 -91z
m4436 131 c-14 -24 -34 -59 -45 -78 -12 -19 -27 -46 -35 -60 -51 -95 -210
-360 -215 -360 -4 0 -24 30 -44 68 -73 130 -100 177 -114 199 -14 22 -12 24
63 62 43 22 152 78 243 125 91 47 167 85 168 86 2 0 -7 -19 -21 -42z m-3467
-625 c80 -41 151 -80 159 -86 8 -7 15 -10 15 -9 1 5 59 -20 66 -28 3 -3 89
-48 191 -100 121 -61 185 -99 182 -107 -3 -7 -8 -12 -11 -11 -4 1 -32 -11 -62
-26 -30 -16 -113 -59 -185 -96 -71 -37 -200 -103 -285 -146 -85 -43 -158 -83
-161 -87 -3 -5 -9 -9 -12 -8 -10 0 -83 -35 -204 -99 l-112 -58 -40 68 c-23 38
-41 73 -41 79 0 6 -4 11 -10 11 -5 0 -10 4 -10 9 0 6 -41 81 -92 168 -50 87
-97 169 -104 182 -14 26 -19 13 76 176 29 50 66 115 83 145 17 30 43 75 59
100 15 25 33 57 39 73 6 15 14 27 19 27 4 0 10 9 13 20 5 18 16 14 144 -51 76
-40 203 -105 283 -146z m2620 191 c0 -8 4 -14 8 -14 5 0 14 -16 22 -35 8 -19
16 -35 20 -35 3 0 18 -24 33 -52 16 -29 37 -68 48 -87 11 -19 54 -92 94 -163
l75 -129 -83 -143 c-46 -78 -86 -149 -90 -156 -4 -8 -18 -33 -32 -55 -13 -22
-43 -72 -65 -112 l-40 -72 -107 56 c-174 89 -372 191 -618 318 -126 65 -249
128 -272 139 -24 12 -43 23 -43 26 0 6 140 77 154 78 5 0 12 4 15 9 3 5 103
58 221 117 118 60 218 113 221 118 3 6 9 9 12 9 10 -1 201 94 228 113 13 9 29
16 37 16 7 0 18 5 25 10 23 19 122 68 130 63 4 -2 7 -11 7 -19z m-1415 -809
c44 -22 82 -42 85 -45 3 -3 46 -26 95 -50 50 -25 110 -56 135 -70 25 -13 51
-25 58 -26 7 -2 19 -7 26 -13 12 -10 166 -90 411 -214 66 -33 128 -67 138 -75
9 -8 17 -12 17 -9 0 4 15 -2 33 -12 18 -10 65 -35 105 -56 40 -20 75 -41 78
-46 3 -6 -2 -22 -12 -37 -10 -15 -29 -47 -42 -72 -14 -25 -31 -52 -38 -61 -8
-8 -14 -19 -14 -22 0 -4 -56 -103 -125 -221 -68 -118 -133 -230 -145 -250 -32
-57 -49 -87 -199 -345 -77 -134 -141 -248 -141 -253 0 -4 -4 -8 -8 -8 -4 0
-13 -12 -19 -27 -6 -16 -19 -39 -27 -53 -30 -49 -126 -213 -126 -215 0 -2 -26
-48 -58 -102 -32 -54 -61 -105 -65 -113 -4 -8 -11 -22 -17 -30 -12 -19 -94
-159 -128 -220 -14 -25 -29 -48 -34 -51 -6 -3 -8 -8 -7 -10 2 -2 -17 -39 -41
-81 -24 -43 -44 -77 -45 -75 -8 10 -222 380 -237 407 -10 19 -23 42 -28 50
-42 67 -100 171 -100 179 0 6 -4 11 -10 11 -5 0 -10 4 -10 9 0 5 -20 44 -45
85 -25 42 -45 81 -45 86 0 6 -4 10 -10 10 -5 0 -10 4 -10 9 0 9 -48 97 -86
158 -8 13 -13 24 -12 26 2 1 -7 15 -19 31 -13 16 -23 34 -23 42 0 7 -4 14 -9
16 -5 2 -20 26 -35 53 -14 28 -31 57 -36 65 -14 21 -234 401 -243 420 -4 8
-13 24 -20 35 -7 11 -39 66 -71 123 -32 56 -62 105 -67 108 -5 3 -7 10 -4 15
4 5 1 9 -4 9 -6 0 -11 4 -11 10 0 5 -18 39 -40 75 -22 36 -40 67 -40 69 0 2
-18 34 -40 70 -23 37 -38 71 -35 76 4 6 23 18 43 28 20 10 132 67 247 127 116
60 251 129 300 154 50 25 93 50 97 56 4 5 8 6 8 1 0 -5 6 -4 13 1 6 6 127 69
267 141 140 72 268 137 284 145 32 17 30 18 141 -38z m-2140 -230 c7 -11 13
-24 13 -28 1 -4 10 -19 22 -34 11 -14 20 -31 20 -39 0 -7 4 -14 8 -16 11 -4
52 -77 52 -91 0 -7 -89 -57 -197 -112 -109 -55 -200 -102 -203 -105 -3 -3 -22
-13 -43 -23 l-38 -17 37 67 c21 38 40 70 43 73 3 3 17 26 31 51 14 25 65 116
115 202 l90 156 19 -32 c10 -18 24 -41 31 -52z m4128 58 c7 -24 50 -96 60
-104 5 -3 8 -9 8 -13 -1 -3 5 -16 13 -29 7 -12 57 -98 111 -192 54 -93 100
-174 102 -179 4 -6 -433 213 -479 240 -4 3 12 37 34 77 23 39 46 81 52 92 6
11 14 22 17 25 3 3 14 21 24 40 31 62 48 75 58 43z"/>
</g>
</svg>
