<?xml version="1.0" encoding="iso-8859-1"?>
<!-- Generator: Adobe Illustrator 19.0.0, SVG Export Plug-In . SVG Version: 6.00 Build 0)  -->
<svg version="1.1" id="Layer_1" xmlns="http://www.w3.org/2000/svg" xmlns:xlink="http://www.w3.org/1999/xlink" x="0px" y="0px"
	 viewBox="0 0 512.001 512.001" style="enable-background:new 0 0 512.001 512.001;" xml:space="preserve">
<path style="fill:#E4EAF8;" d="M256,128C153.059,128,62.187,170.299,7.741,234.846c-10.321,12.235-10.321,30.072,0,42.307
	C62.187,341.702,153.057,384,256,384s193.814-42.298,248.259-106.846c10.321-12.235,10.321-30.072,0-42.307
	C449.814,170.299,358.942,128,256,128z"/>
<path style="fill:#00AAF0;" d="M182.248,135.47c-27.447,21.773-45.105,55.347-45.105,93.102
	c0,65.642,53.214,118.857,118.857,118.857s118.857-53.214,118.857-118.857c0-37.754-17.658-71.329-45.105-93.101
	C306.148,130.604,281.447,128,256,128S205.852,130.604,182.248,135.47z"/>
<circle style="fill:#0096DC;" cx="256" cy="228.572" r="73.143"/>
<circle style="fill:#464655;" cx="256" cy="228.572" r="45.714"/>
<g>
	<circle style="fill:#FFFFFF;" cx="283.429" cy="201.143" r="18.286"/>
	<circle style="fill:#FFFFFF;" cx="205.715" cy="278.857" r="11.429"/>
</g>
<g>
</g>
<g>
</g>
<g>
</g>
<g>
</g>
<g>
</g>
<g>
</g>
<g>
</g>
<g>
</g>
<g>
</g>
<g>
</g>
<g>
</g>
<g>
</g>
<g>
</g>
<g>
</g>
<g>
</g>
</svg>
