<?xml version="1.0" encoding="iso-8859-1"?>
<!-- Generator: Adobe Illustrator 19.0.0, SVG Export Plug-In . SVG Version: 6.00 Build 0)  -->
<svg version="1.1" id="Layer_1" xmlns="http://www.w3.org/2000/svg" xmlns:xlink="http://www.w3.org/1999/xlink" x="0px" y="0px"
	 viewBox="0 0 511.692 511.692" style="enable-background:new 0 0 511.692 511.692;" xml:space="preserve">
<g>
	<g>
		<path style="fill:#AFB5CB;" d="M205.908,255.848l-53.345,53.345c2.79,11.944,8.722,23.04,17.743,32.194
			c9.181,8.978,19.994,15.06,31.735,18.194l53.804-53.795L205.908,255.848z"/>
		<polygon style="fill:#AFB5CB;" points="430.39,31.366 255.842,205.914 305.78,255.852 480.327,81.304 511.692,0.002 		"/>
	</g>
	<polygon style="fill:#BD8366;" points="57.456,479.206 32.492,454.241 141.689,345.035 166.653,370.008 	"/>
	<g>
		<path style="fill:#D69C77;" d="M36.496,508.181l-32.98-32.98c-4.687-4.687-4.687-12.279,0-16.958l8.015-8.015
			c4.679-4.679,12.27-4.679,16.949,0l32.98,32.989c4.687,4.679,4.687,12.27,0,16.949l-8.015,8.015
			C48.766,512.86,41.175,512.86,36.496,508.181"/>
		<path style="fill:#D69C77;" d="M145.664,366.675c-0.159-0.159-0.327-0.327-0.486-0.494
			c-14.557-14.751-24.276-33.465-28.054-53.372c-2.136-11.255,6.418-21.672,17.867-21.301c8.201,0.265,15.254,6.135,16.675,14.212
			c2.348,13.286,8.739,25.626,18.644,35.663c10.54,10.311,23.172,17.064,36.988,19.588c8.077,1.474,13.842,8.677,13.992,16.887
			v0.044c0.212,10.929-9.534,19.756-20.295,17.779C180.224,391.869,160.786,381.797,145.664,366.675"/>
	</g>
	<path style="fill:#C7CFE3;" d="M282.171,238.349c-2.26,0-4.52-0.865-6.241-2.586c-3.452-3.452-3.452-9.031,0-12.482L435.074,64.137
		c3.443-3.443,9.031-3.443,12.482,0c3.443,3.452,3.443,9.039,0,12.482L288.412,235.763
		C286.691,237.484,284.431,238.349,282.171,238.349"/>
	<polygon style="fill:#BD8366;" points="454.233,479.206 479.198,454.241 369.841,344.885 344.877,369.849 	"/>
	<g>
		<path style="fill:#D69C77;" d="M475.193,508.181l32.98-32.98c4.688-4.687,4.688-12.279,0-16.958l-8.015-8.015
			c-4.679-4.679-12.27-4.679-16.949,0l-32.98,32.989c-4.687,4.679-4.687,12.27,0,16.949l8.015,8.015
			C462.923,512.86,470.515,512.86,475.193,508.181"/>
		<path style="fill:#D69C77;" d="M366.025,366.675c0.159-0.159,0.327-0.327,0.486-0.494c14.557-14.751,24.276-33.465,28.054-53.372
			c2.136-11.255-6.418-21.672-17.867-21.301c-8.201,0.265-15.254,6.135-16.675,14.212c-2.348,13.286-8.739,25.626-18.644,35.663
			c-10.54,10.311-23.172,17.064-36.988,19.588c-8.077,1.474-13.842,8.677-13.992,16.887v0.044
			c-0.212,10.929,9.534,19.756,20.295,17.779C331.465,391.869,350.904,381.797,366.025,366.675"/>
	</g>
	<path style="fill:#C7CFE3;" d="M341.38,341.384c-9.181,8.978-19.994,15.06-31.735,18.202L31.364,81.306L0,0.004l81.302,31.364
		l277.822,277.831C356.343,321.133,350.402,332.239,341.38,341.384"/>
	<path style="fill:#AFB5CB;" d="M308.965,317.798c-2.26,0-4.52-0.865-6.241-2.587L64.14,76.619c-3.452-3.443-3.452-9.031,0-12.482
		c3.443-3.443,9.031-3.443,12.482,0l238.583,238.592c3.452,3.452,3.452,9.031,0,12.482
		C313.484,316.932,311.224,317.798,308.965,317.798"/>
</g>
<g>
</g>
<g>
</g>
<g>
</g>
<g>
</g>
<g>
</g>
<g>
</g>
<g>
</g>
<g>
</g>
<g>
</g>
<g>
</g>
<g>
</g>
<g>
</g>
<g>
</g>
<g>
</g>
<g>
</g>
</svg>
