<?xml version="1.0" encoding="iso-8859-1"?>
<!-- Generator: Adobe Illustrator 19.0.0, SVG Export Plug-In . SVG Version: 6.00 Build 0)  -->
<svg version="1.1" id="Layer_1" xmlns="http://www.w3.org/2000/svg" xmlns:xlink="http://www.w3.org/1999/xlink" x="0px" y="0px"
	 viewBox="0 0 512 512" style="enable-background:new 0 0 512 512;" xml:space="preserve">
<path style="fill:#E4EAF8;" d="M256,132.157c-99.599,0-187.52,40.925-240.198,103.376c-9.986,11.838-9.986,29.096,0,40.934
	C68.48,338.92,156.401,379.844,256,379.844s187.52-40.925,240.198-103.376c9.986-11.838,9.986-29.096,0-40.934
	C443.52,173.082,355.599,132.157,256,132.157z"/>
<path style="fill:#00AAF0;" d="M184.642,139.385c-26.556,21.064-43.641,53.549-43.641,90.078
	c0,63.512,51.487,114.998,114.998,114.998s114.998-51.487,114.998-114.998c0-36.528-17.085-69.013-43.641-90.078
	c-22.838-4.708-46.737-7.228-71.357-7.228S207.48,134.676,184.642,139.385z"/>
<circle style="fill:#0096DC;" cx="256.002" cy="229.465" r="70.768"/>
<circle style="fill:#464655;" cx="256.002" cy="229.465" r="44.23"/>
<g>
	<circle style="fill:#FFFFFF;" cx="282.54" cy="202.927" r="17.692"/>
	<circle style="fill:#FFFFFF;" cx="207.349" cy="278.118" r="11.057"/>
</g>
<path d="M502.538,230.186C446.381,163.61,354.217,123.863,256,123.863S65.619,163.61,9.462,230.186
	c-12.617,14.957-12.617,36.671,0,51.627C65.618,348.39,157.782,388.137,256,388.137s190.382-39.747,246.538-106.323
	C515.154,266.857,515.154,245.144,502.538,230.186z M323.947,147.198c24.646,20.372,38.758,50.263,38.758,82.265
	c0,58.837-47.868,106.705-106.705,106.705S149.295,288.3,149.295,229.463c0-31.994,14.114-61.894,38.758-82.265
	c21.993-4.432,44.786-6.747,67.947-6.747S301.953,142.765,323.947,147.198z M489.859,271.12
	C436.815,334.007,349.391,371.551,256,371.551S75.184,334.007,22.14,271.12c-7.39-8.761-7.39-21.479,0-30.24
	c33.76-40.023,81.455-69.758,135.741-86.107c-16.216,21.239-25.171,47.298-25.171,74.689c0,67.982,55.308,123.291,123.291,123.291
	s123.291-55.308,123.291-123.291c0-27.396-8.953-53.451-25.168-74.688c54.283,16.348,101.978,46.083,135.736,86.106
	C497.249,249.642,497.249,262.36,489.859,271.12z"/>
<path d="M256,281.986c28.961,0,52.523-23.562,52.523-52.523c0-7.274-1.462-14.321-4.343-20.942c-1.829-4.2-6.715-6.123-10.914-4.295
	c-4.2,1.828-6.123,6.714-4.295,10.914c1.968,4.521,2.966,9.34,2.966,14.323c0,19.816-16.122,35.937-35.937,35.937
	s-35.937-16.121-35.937-35.937s16.122-35.937,35.937-35.937c5.006,0,9.847,1.007,14.387,2.993c4.199,1.837,9.086-0.079,10.921-4.275
	c1.836-4.196-0.078-9.086-4.275-10.921c-6.65-2.908-13.727-4.383-21.035-4.383c-28.961,0-52.523,23.562-52.523,52.523
	S227.038,281.986,256,281.986z"/>
<g>
</g>
<g>
</g>
<g>
</g>
<g>
</g>
<g>
</g>
<g>
</g>
<g>
</g>
<g>
</g>
<g>
</g>
<g>
</g>
<g>
</g>
<g>
</g>
<g>
</g>
<g>
</g>
<g>
</g>
</svg>
