<?xml version="1.0" encoding="iso-8859-1"?>
<!-- Generator: Adobe Illustrator 19.0.0, SVG Export Plug-In . SVG Version: 6.00 Build 0)  -->
<svg version="1.1" id="Layer_1" xmlns="http://www.w3.org/2000/svg" xmlns:xlink="http://www.w3.org/1999/xlink" x="0px" y="0px"
	 viewBox="0 0 508.4 508.4" style="enable-background:new 0 0 508.4 508.4;" xml:space="preserve">
<path style="fill:#F4EFEF;" d="M351.4,162.4c0.8-0.4,2-0.4,2.8,0.8c10.4,18,15.6,38,15.6,58.8c0,64.8-52.8,117.6-117.6,117.6
	S134.6,286.8,134.6,222c0-25.6,8.4-50.4,23.6-70.8C86.6,168.8,32.6,205.6,6.6,254c36.8,68,132.8,113.6,245.6,113.6
	S465,322,501.8,254c-26.8-50-88-87.6-162.8-104.4l11.6,15.2V164C350.6,163.6,351,162.8,351.4,162.4z"/>
<path style="fill:#CCCCCC;" d="M164.2,150c2-0.4,4-0.8,5.6-1.2l-4.8-0.4c0,0.4,0,0.8-0.4,1.2C164.6,149.6,164.6,149.6,164.2,150z"/>
<path style="fill:#33A5D2;" d="M138.6,222c0,62.8,51.2,113.6,113.6,113.6S365.8,284.8,365.8,222c0-20-5.2-39.6-15.2-56.8
	c-0.4-0.4-9.2-12.4-11.6-15.6c0,0-38.8-9.6-85.2-9.6s-88.4,8.4-88.4,8.4l-1.2,1.6C147.8,170,138.6,195.6,138.6,222z M210.2,173.6
	c11.6-10,26.8-15.6,42-15.6c15.6,0,30.4,5.6,42,15.6c0.8,0.8,0.8,2,0.4,2.8c-0.4,0.4-0.8,0.4-1.2,0.8l3.2,17.6
	c5.2-3.6,11.6-5.6,18-5.6c8,0,15.6,2.8,21.6,8c7.2,6.4,11.6,15.6,11.6,25.2c0,18.4-14.8,33.2-33.2,33.2c-2.4,0-4.8-0.4-6.8-0.8
	c-11.6,19.6-32.8,32-55.6,32c-35.6,0-64.4-28.8-64.4-64.4C187.8,203.6,195.8,185.6,210.2,173.6z"/>
<g>
	<path style="fill:#73BADD;" d="M187.8,222c0-10.4,2.4-20,7.2-28h-52.4c-2.4,8-4,18-4,28s1.2,20,4,28h52.8
		C190.6,242,187.8,232.8,187.8,222z"/>
	<path style="fill:#73BADD;" d="M362.2,194h-32.4c2.4,0,4.4,2,6.4,3.6c7.2,6.4,11.6,14.4,11.6,24c0,12.4-7.2,24-17.6,28h32
		c2.4-8,4-17.6,4-28C365.8,212,364.6,202,362.2,194z"/>
</g>
<path style="fill:#676767;" d="M291.4,176.4c-10.8-9.6-24.8-14.8-39.2-14.8c-14.4,0-28.4,5.2-39.6,14.8
	c-13.2,11.6-20.8,28-20.8,45.6c0,33.2,27.2,60.4,60.4,60.4c21.2,0,40.8-11.2,51.6-29.2c-12.8-4.4-22.4-16.8-22.4-31.2
	c0-9.6,4-18.8,11.6-25.2c1.2-0.8,2.4-2,3.6-2.8l-3.2-17.6C292.6,176.8,292.2,176.8,291.4,176.4z"/>
<path style="fill:#F4EFEF;" d="M333.4,200c-5.2-4.4-12-7.2-19.2-7.2c-6.4,0-12.4,2-17.2,5.6c-0.4,0.4-1.2,0.8-1.6,1.2
	c-6.4,5.6-10,13.6-10,22c0,13.2,8.8,24.4,20.8,28c2.4,0.8,5.2,1.2,8,1.2c16,0,29.2-13.2,29.2-29.2
	C343.8,213.6,340.2,205.6,333.4,200z"/>
<path d="M252.2,373.6C137.4,373.6,38.6,327.2,0.6,256c-0.8-1.2-0.8-2.4,0-3.6c38-71.6,136.8-117.6,251.6-117.6
	c115.6,0,218.4,47.2,255.6,117.6c0.8,1.2,0.8,2.4,0,3.6C470.6,326.4,367.8,373.6,252.2,373.6z M8.6,254
	C45.8,322,141,365.6,252.2,365.6c111.6,0,210.8-44.8,247.6-111.6c-36.8-66.8-136-111.6-247.6-111.6C141.4,142.4,45.8,186,8.6,254z"
	/>
<path d="M252.6,342c-66,0-119.6-53.6-119.6-119.6c0-28,10-55.2,27.6-76.4c1.6-1.6,4-2,5.6-0.4s2,4,0.4,5.6c-16.8,20-26,45.2-26,71.6
	c0,61.6,50,111.6,111.6,111.6s111.6-50,111.6-111.6c0-20-5.2-38.8-15.2-56c-1.2-2-0.4-4.4,1.6-5.6s4.4-0.4,5.6,1.6
	c10.8,18.4,16,38.8,16,60C372.2,288.4,318.6,342,252.6,342z"/>
<path d="M252.2,288.8c-36.8,0-66.4-29.6-66.4-66.4c0-19.2,8.4-37.2,22.8-50.4c11.6-10.4,27.2-16,43.6-16c16,0,31.2,5.6,43.6,16
	c1.6,1.6,2,4,0.4,5.6s-4,2-5.6,0.4c-10.8-9.2-24-14.4-38-14.4c-14.4,0-28,5.2-38,14c-12.8,11.2-20.4,27.6-20.4,44.4
	c0,32.4,26,58.4,58.4,58.4c20.8,0,40.4-11.6,50.8-30.4c1.2-2,3.6-2.8,5.6-1.6c2,1.2,2.8,3.6,1.6,5.6
	C298.2,275.6,275.8,288.8,252.2,288.8z"/>
<path d="M314.6,257.2c-19.6,0-35.2-15.6-35.2-35.2c0-10.8,4.4-20,12.4-26.8c6.4-5.6,14.4-8.4,22.8-8.4c8.4,0,16.4,3.2,23.2,8.4
	c8,7.2,12,16.8,12,26.8C349.8,241.6,334.2,257.2,314.6,257.2z M314.6,194.8c-6.8,0-12.8,2.4-17.6,6.8c-6,5.2-9.6,12.4-9.6,20.4
	c0,14.8,12.4,27.2,27.2,27.2c15.2,0,27.2-12.4,27.2-27.2c0-7.6-3.6-14.8-9.6-20.8C327.4,197.2,321,194.8,314.6,194.8z"/>
<g>
</g>
<g>
</g>
<g>
</g>
<g>
</g>
<g>
</g>
<g>
</g>
<g>
</g>
<g>
</g>
<g>
</g>
<g>
</g>
<g>
</g>
<g>
</g>
<g>
</g>
<g>
</g>
<g>
</g>
</svg>
