<?xml version="1.0" encoding="iso-8859-1"?>
<!-- Generator: Adobe Illustrator 19.0.0, SVG Export Plug-In . SVG Version: 6.00 Build 0)  -->
<svg version="1.1" id="Layer_1" xmlns="http://www.w3.org/2000/svg" xmlns:xlink="http://www.w3.org/1999/xlink" x="0px" y="0px"
	 viewBox="0 0 505.4 505.4" style="enable-background:new 0 0 505.4 505.4;" xml:space="preserve">
<path style="fill:#F4EFEF;" d="M252.7,381.5c111.6,0,210.4-51.6,246.8-128.8c-36.4-77.2-135.2-128.8-246.8-128.8
	S42.3,175.5,5.9,252.7C42.3,329.9,141.1,381.5,252.7,381.5z M183.9,173.5c19.2-16.4,43.6-25.6,68.8-25.6s49.6,9.2,67.6,26.8
	l22.4,26.8c10.4,14.8,15.2,33.2,15.2,51.6c0,58-47.2,105.2-105.2,105.2s-105.2-47.2-105.2-105.2
	C147.5,222.7,160.7,193.5,183.9,173.5z"/>
<path style="fill:#61C2AB;" d="M252.3,354.3c55.6,0,101.2-45.2,101.2-101.2c0-17.6-4.8-35.2-12-52.4l-22-26.4
	c-19.6-13.6-43.2-22.4-67.2-22.4c-24.4,0-47.6,8.8-66,24.4c-22.4,19.2-35.2,47.2-35.2,76.4C151.1,308.7,196.7,354.3,252.3,354.3z
	 M214.7,209.5c10.4-9.2,23.6-14,37.6-14c13.6,0,27.2,4.8,37.6,14l0.4,0.4l9.2,14.8c2.8-0.8,5.6-1.2,8.4-1.2c7.2,0,14,2.4,19.2,7.2
	c6.4,5.6,10.4,14,10.4,22.4c0,16.4-13.2,29.6-29.6,29.6c-2,0-4-0.4-6-0.8c-10.4,17.6-29.2,28.4-49.6,28.4c-31.6,0-57.6-26-57.6-57.6
	C194.7,236.3,202.3,220.7,214.7,209.5z"/>
<path style="fill:#354E5C;" d="M278.3,253.1c0-8.8,3.6-16.8,10.4-22.4c2-2,4.4-3.2,10.8-6.8l-8.4-13.6c-13.2-6-25.6-10.8-38.4-10.8
	c-12.8,0-25.2,4.8-35.2,13.2c-11.6,10-18.4,24.8-18.4,40.4c0,29.6,24,53.6,53.6,53.6c18.8,0,36-9.6,45.6-25.6
	C286.3,277.1,278.3,265.9,278.3,253.1z"/>
<path style="fill:#F4EFEF;" d="M324.7,233.5c-4.8-4-10.8-6.4-16.8-6.4c-2.8,0-5.2,0.4-7.6,1.2l-0.4,0.4c-0.4,0-0.8,0.4-0.8,0.4h-0.4
	c-2.4,1.2-5.2,2.4-7.2,4.4c-5.6,4.8-8.8,12-8.8,19.6c0,11.6,8,21.6,18.8,24.8c2.4,0.8,4.4,1.2,7.2,1.2c14.4,0,25.6-11.6,25.6-25.6
	C333.9,245.5,330.3,238.3,324.7,233.5z"/>
<path d="M252.7,387.5c-114,0-215.6-53.6-252.4-133.2c-0.4-1.2-0.4-2.4,0-3.2c36.8-79.6,138.4-133.2,252.4-133.2
	s215.6,53.6,252.4,133.2c0.4,1.2,0.4,2.4,0,3.2C468.3,333.9,366.7,387.5,252.7,387.5z M8.3,252.7c36.4,76,134.4,126.8,244.4,126.8
	c110.4,0,208.4-50.8,244.4-126.8c-36.4-76-134-126.8-244.4-126.8S44.3,176.7,8.3,252.7z"/>
<path d="M252.3,360.3c-59.2,0-107.2-48-107.2-107.2c0-31.2,13.6-60.8,37.2-81.2c19.6-16.8,44.4-26,70-26s50.4,9.2,70,26
	c1.6,1.6,2,4,0.4,5.6s-4,2-5.6,0.4c-18-15.6-40.8-24-64.4-24c-23.6,0-46.8,8.4-64.8,24c-22,18.8-34.4,46-34.4,74.8
	c0,54.8,44.4,99.2,99.2,99.2s99.2-44.4,99.2-99.2c0-17.6-4.4-34.4-13.2-49.6c-1.2-2-0.4-4.4,1.6-5.6s4.4-0.4,5.6,1.6
	c9.2,16.4,14.4,34.8,14.4,53.6C359.5,312.3,311.5,360.3,252.3,360.3z"/>
<path d="M252.3,312.7c-32.8,0-59.6-26.8-59.6-59.6c0-17.2,7.6-33.6,20.8-45.2c10.8-9.2,24.8-14.4,38.8-14.4c14.4,0,28,5.2,38.8,14.4
	c1.6,1.6,2,4,0.4,5.6s-4,2-5.6,0.4c-9.2-8-21.2-12.4-33.6-12.4c-12.4,0-24.4,4.4-33.6,12.4c-11.2,10-18,24-18,39.2
	c0,28.4,23.2,51.6,51.6,51.6c18.8,0,36-10.4,45.2-26.8c1.2-2,3.6-2.8,5.6-1.6c2,1.2,2.8,3.6,1.6,5.6
	C293.9,300.7,273.9,312.7,252.3,312.7z"/>
<path d="M307.9,284.7c-17.6,0-31.6-14.4-31.6-31.6c0-9.2,4-18,11.2-24c5.6-4.8,13.2-7.6,20.8-7.6s14.8,2.8,20.8,7.6
	c7.2,6,11.2,14.8,11.2,24C339.5,270.7,325.5,284.7,307.9,284.7z M307.9,229.5c-5.6,0-11.2,2-15.6,5.6c-5.2,4.4-8.4,11.2-8.4,18
	c0,13.2,10.8,23.6,23.6,23.6c13.2,0,23.6-10.8,23.6-23.6c0-6.8-3.2-13.6-8.4-18C319.1,231.5,313.5,229.5,307.9,229.5z"/>
<g>
</g>
<g>
</g>
<g>
</g>
<g>
</g>
<g>
</g>
<g>
</g>
<g>
</g>
<g>
</g>
<g>
</g>
<g>
</g>
<g>
</g>
<g>
</g>
<g>
</g>
<g>
</g>
<g>
</g>
</svg>
